<svg width="334" height="362" viewBox="0 0 334 362" fill="none" xmlns="http://www.w3.org/2000/svg">
<path d="M164.65 118.622L132.973 19.4492L132.799 19.0987L119.92 27.5092L163.432 120.024L124.967 50.8132L124.793 50.4627L116.091 56.5954L162.562 121.251L111.565 60.2749L111.391 60.0997L103.907 65.7067L166.565 127.033H166.739L166.913 127.208H167.087L167.261 127.033H167.435L229.919 65.8819L230.093 65.7067L222.783 60.0997L171.438 121.251L217.735 56.7706L217.909 56.5954L209.207 50.4627L170.568 120.024L214.08 27.6844V27.5092L201.201 19.0987L169.35 118.622L195.283 16.2953V16.12L180.837 7.18393L167.783 117.221L175.441 0.350436V0H158.559L166.217 117.221L153.163 7.70958V7.18393L138.717 16.12L164.65 118.622Z" fill="url(#paint0_linear)"/>
<path d="M271.342 283.152C270.646 283.152 269.776 283.327 269.254 283.853C268.732 284.378 268.384 285.079 268.384 285.78C268.384 287.357 269.428 288.759 271.168 288.759H271.342C272.909 288.759 274.127 287.532 274.127 285.955C274.127 285.255 273.953 284.378 273.431 283.853C272.909 283.502 272.213 283.152 271.342 283.152Z" fill="url(#paint1_linear)"/>
<path d="M286.659 275.442C285.963 275.442 285.092 275.618 284.57 276.143C284.048 276.669 283.7 277.37 283.7 278.071C283.7 278.772 283.874 279.648 284.396 280.173C284.918 280.699 285.614 281.049 286.311 281.049H286.485C287.181 281.049 287.877 280.874 288.399 280.349C288.921 279.823 289.27 279.122 289.27 278.421C289.27 277.72 289.095 276.844 288.573 276.319C288.051 275.793 287.355 275.442 286.659 275.442Z" fill="url(#paint2_linear)"/>
<path d="M62.6576 283.152C61.9614 283.152 61.2652 283.502 60.7431 284.028C60.2209 284.554 60.0469 285.255 60.0469 286.131C60.0469 286.832 60.395 287.532 60.9171 288.058C61.4393 288.584 62.1355 288.759 62.8317 288.759H63.0057C64.5721 288.759 65.7905 287.357 65.7905 285.78C65.7905 285.079 65.4424 284.379 64.9202 283.853C64.05 283.327 63.3538 282.977 62.6576 283.152Z" fill="url(#paint3_linear)"/>
<path d="M54.6513 279.472C53.9551 279.472 53.2589 279.823 52.7367 280.348C52.2146 280.874 52.0405 281.575 52.0405 282.451C52.0405 283.152 52.3886 283.853 52.9108 284.378C53.4329 284.904 54.1291 285.079 54.8253 285.079H54.9994C55.6956 285.079 56.3918 284.729 56.9139 284.203C57.436 283.678 57.6101 282.977 57.6101 282.101C57.6101 281.4 57.262 280.699 56.7398 280.173C56.0437 279.648 55.3475 279.472 54.6513 279.472Z" fill="url(#paint4_linear)"/>
<path d="M47.3414 275.442C46.6453 275.442 45.9491 275.793 45.4269 276.319C44.9048 276.844 44.7307 277.545 44.7307 278.421C44.7307 279.122 45.0788 279.823 45.601 280.349C46.1231 280.874 46.8193 281.049 47.5155 281.049H47.6895C48.3857 281.049 49.0819 280.699 49.6041 280.173C50.1262 279.648 50.3003 278.947 50.3003 278.071C50.3003 277.37 49.9522 276.669 49.43 276.143C48.9079 275.618 48.0376 275.442 47.3414 275.442Z" fill="url(#paint5_linear)"/>
<path d="M40.0311 271.412C39.3349 271.412 38.6388 271.763 38.1166 272.288C37.5945 272.814 37.4204 273.515 37.4204 274.391C37.4204 275.092 37.7685 275.793 38.2907 276.318C38.8128 276.844 39.509 277.019 40.2052 277.019H40.3792C41.0754 277.019 41.7716 276.669 42.2938 276.143C42.8159 275.618 42.99 274.917 42.99 274.041C42.99 273.34 42.6419 272.639 42.1197 272.113C41.5976 271.588 40.9014 271.412 40.0311 271.412Z" fill="url(#paint6_linear)"/>
<path d="M32.8952 267.382C32.199 267.382 31.5028 267.733 30.9806 268.259C30.4585 268.784 30.2844 269.485 30.2844 270.361C30.2844 271.062 30.6325 271.763 31.1547 272.288C31.6768 272.814 32.373 272.989 33.0692 272.989H33.2433C33.9395 272.989 34.6357 272.639 35.1578 272.113C35.6799 271.588 35.854 270.887 35.854 270.011C35.6799 268.609 34.4616 267.382 32.8952 267.382Z" fill="url(#paint7_linear)"/>
<path d="M212.514 90.7628L203.985 99.3485H279.001V107.058H301.453C305.978 122.302 320.25 124.405 324.775 124.755V259.498C286.311 252.138 245.409 247.583 203.115 246.006C200.156 228.834 185.188 215.693 167.261 215.693C149.334 215.693 134.366 228.834 131.407 246.006C88.939 247.583 47.8635 251.963 9.39865 259.498V124.755C13.9239 124.405 28.0219 122.302 32.5472 107.058H54.9995V99.3485H130.015L121.486 90.7628H47.8635V96.3698H24.889L24.715 97.4211C24.715 97.5963 20.5378 115.118 1.21834 116.695L0 116.87V270.361L1.56644 270.011C1.74049 270.011 5.04742 269.31 10.791 268.258L65.6165 301.199L166.217 361.65L166.913 362L167.957 361.474L268.732 301.024L323.209 268.258C328.953 269.31 332.26 270.011 332.434 270.011L334 270.361V116.87L332.782 116.695C313.636 115.118 309.459 98.2972 309.285 97.4211L309.111 96.3698H286.311V90.7628H212.514ZM198.242 250.036C198.416 250.036 198.59 249.861 198.938 249.861C199.982 249.861 200.853 250.561 201.201 251.613C201.549 252.839 200.853 254.241 199.634 254.591C198.416 254.942 197.197 254.241 196.675 253.014C196.327 251.613 197.023 250.386 198.242 250.036ZM196.849 268.784C196.675 269.31 196.327 269.835 195.805 270.186C195.283 270.536 194.587 270.536 194.065 270.361C193.542 270.186 193.02 269.835 192.672 269.31C192.324 268.784 192.324 268.083 192.498 267.558C192.672 267.032 193.02 266.506 193.542 266.156C193.891 265.981 194.239 265.805 194.761 265.805C194.935 265.805 195.109 265.805 195.283 265.805C196.501 266.331 197.197 267.558 196.849 268.784ZM192.846 234.617C193.194 234.091 193.891 233.916 194.413 233.916C195.109 233.916 195.631 234.091 196.153 234.617C196.675 234.967 196.849 235.668 196.849 236.194C196.849 236.894 196.675 237.42 196.153 237.946C195.283 238.822 193.717 238.822 192.846 237.946C191.976 237.07 191.976 235.493 192.846 234.617ZM180.663 223.928C180.837 223.403 181.185 222.877 181.707 222.527C182.055 222.351 182.403 222.176 182.925 222.176C183.1 222.176 183.274 222.176 183.448 222.176C184.666 222.527 185.536 223.753 185.188 224.98C184.84 226.206 183.622 227.082 182.403 226.732C181.185 226.557 180.315 225.155 180.663 223.928ZM166.391 217.971C166.565 217.971 166.739 217.796 167.087 217.796C167.435 217.796 167.783 217.971 168.131 218.146C168.653 218.497 169.002 219.022 169.176 219.548C169.35 220.074 169.35 220.774 169.002 221.3C168.653 221.826 168.131 222.176 167.609 222.351C166.391 222.702 164.998 222.001 164.65 220.774C164.476 219.723 165.172 218.497 166.391 217.971ZM149.856 222.877C150.726 222.001 152.293 222.001 153.163 222.877C154.033 223.753 154.033 225.33 153.163 226.206C152.641 226.732 152.119 226.907 151.597 226.907C150.9 226.907 150.378 226.732 150.03 226.206C148.986 225.155 148.986 223.753 149.856 222.877ZM167.087 224.279C182.403 224.279 194.935 236.894 194.935 252.314C194.935 267.733 182.403 280.348 167.087 280.348C151.771 280.348 139.239 267.733 139.239 252.314C139.239 236.894 151.771 224.279 167.087 224.279ZM184.666 281.575C184.318 282.101 183.622 282.276 183.1 282.276C182.403 282.276 181.881 282.101 181.533 281.575C180.663 280.699 180.663 279.122 181.533 278.246C182.055 277.72 182.577 277.545 183.274 277.545C183.796 277.545 184.492 277.72 184.84 278.246C185.536 279.122 185.536 280.699 184.666 281.575ZM167.783 286.481C166.565 286.832 165.347 286.131 164.998 284.904C164.824 284.378 164.824 283.678 165.172 283.152C165.521 282.626 166.043 282.276 166.565 282.101C166.739 282.101 166.913 282.101 167.261 282.101C168.305 282.101 169.176 282.802 169.524 283.853C169.698 284.904 169.002 286.131 167.783 286.481ZM153.511 280.524C153.337 281.049 152.989 281.575 152.467 281.925C151.945 282.276 151.249 282.276 150.726 282.101C150.204 281.925 149.682 281.575 149.334 281.049C148.986 280.524 148.986 279.823 149.16 279.297C149.334 278.771 149.682 278.246 150.204 277.895C150.552 277.72 150.9 277.545 151.423 277.545C151.597 277.545 151.771 277.545 151.945 277.545C152.467 277.72 152.989 278.071 153.337 278.596C153.511 279.297 153.685 279.823 153.511 280.524ZM141.85 268.083C141.85 268.784 141.676 269.31 141.154 269.66C140.283 270.536 138.717 270.536 137.847 269.66C136.977 268.784 136.977 267.207 137.847 266.331C138.369 265.805 138.891 265.63 139.587 265.63C140.109 265.63 140.806 265.805 141.154 266.331C141.676 266.857 141.85 267.558 141.85 268.083ZM137.499 235.493C137.847 234.441 138.717 233.741 139.761 233.741C139.935 233.741 140.109 233.741 140.283 233.741C141.502 234.091 142.198 235.317 142.024 236.544C141.676 237.771 140.458 238.471 139.239 238.296C138.717 238.121 138.195 237.771 137.847 237.245C137.499 236.719 137.325 236.194 137.499 235.493ZM133.322 250.912C133.67 250.386 134.192 250.036 134.714 249.861C134.888 249.861 135.062 249.861 135.41 249.861C135.758 249.861 136.28 250.036 136.628 250.211C137.151 250.561 137.499 251.087 137.673 251.613C138.021 252.839 137.325 254.066 136.106 254.416C135.584 254.591 134.888 254.591 134.366 254.241C133.844 253.891 133.496 253.365 133.322 252.839C132.973 252.138 133.147 251.438 133.322 250.912ZM2.61073 267.032V119.323C19.8416 117.396 25.5852 103.203 26.9776 99.1733H50.4742V93.5663H120.442L123.575 96.7202H52.2147V104.43H30.4586L30.2845 105.481C25.9333 122.302 8.70245 122.127 8.00625 122.127H6.61386V262.827L8.1803 262.476C46.8192 254.942 88.0688 250.386 130.885 248.809C130.711 250.036 130.711 251.087 130.711 252.314V252.489C69.7936 254.591 12.8796 265.105 2.61073 267.032ZM70.1417 300.674L67.1829 298.922L70.1417 293.84V300.674ZM73.6227 302.776L71.7082 301.725V291.212L73.6227 288.058V302.776ZM77.1037 304.879L75.1892 303.828V285.43L77.1037 282.276V304.879ZM80.5847 306.982L78.6701 305.93V279.648L79.3663 278.421L80.4106 279.122V306.982H80.5847ZM84.0657 309.084L82.1511 308.033V279.998L84.0657 281.225V309.084ZM87.5466 311.187L85.6321 310.135V282.101L87.5466 283.327V311.187ZM91.0276 313.289L89.1131 312.238V284.203L91.0276 285.43V313.289ZM94.5086 315.392L92.5941 314.341V286.306L94.5086 287.532V315.392ZM97.9896 317.495L96.075 316.443V288.408L97.9896 289.635V317.495ZM101.471 319.597L99.556 318.546V290.511L101.471 291.738V319.597ZM104.952 321.7L103.037 320.649V292.614L104.952 293.84V321.7ZM108.607 295.943V323.802L106.692 322.751V294.716L108.607 295.943ZM112.088 325.905L110.173 324.854V296.819L112.088 298.045V325.905ZM115.569 328.008L113.654 326.956V299.097L115.569 300.323V328.008ZM119.05 330.11L117.135 329.059V301.199L119.05 302.426V330.11ZM122.53 332.213L120.616 331.162V303.127L122.53 304.353V332.213ZM126.011 334.316L124.097 333.264V305.405L126.011 306.631V334.316ZM129.492 336.418L127.578 335.367V307.507L129.492 308.734V336.418ZM132.973 338.521L131.059 337.469V309.61L132.973 310.836V338.521ZM136.454 312.764V338.696L135.584 340.098L134.54 339.572V311.712L136.454 312.764ZM139.935 333.615L138.021 336.418V313.815L139.935 315.042V333.615ZM143.416 342.901C143.416 342.901 143.242 342.901 143.416 342.901C142.024 342.901 141.154 341.85 141.154 340.448C141.154 339.747 141.502 339.222 141.85 338.871C142.372 338.521 142.894 338.17 143.416 338.17C144.113 338.17 144.635 338.521 144.983 338.871C145.331 339.397 145.679 339.923 145.679 340.623C145.679 341.85 144.635 342.901 143.416 342.901ZM141.502 331.337V315.918L143.416 317.144V328.709L141.502 331.337ZM145.157 326.256V318.02L149.16 320.473L145.157 326.256ZM148.464 330.286C148.638 330.286 148.638 330.286 148.464 330.286C149.16 330.286 149.682 330.636 150.204 330.986C150.552 331.512 150.9 332.038 150.9 332.739C150.9 333.965 149.856 335.016 148.638 335.016C147.419 335.016 146.375 333.965 146.375 332.563C146.201 331.337 147.245 330.286 148.464 330.286ZM166.913 358.846L146.375 346.406L167.087 316.268L187.799 346.406L166.913 358.846ZM151.423 324.854C151.423 323.627 152.467 322.576 153.685 322.576C154.381 322.576 154.904 322.926 155.252 323.277C155.6 323.802 155.948 324.328 155.948 325.029C155.948 325.73 155.6 326.256 155.252 326.606C154.73 326.956 154.207 327.307 153.511 327.307C152.815 327.307 152.293 326.956 151.945 326.606C151.597 326.08 151.423 325.379 151.423 324.854ZM156.644 316.969C156.644 316.268 156.992 315.742 157.34 315.392C157.862 315.042 158.385 314.691 159.081 314.691C159.777 314.691 160.299 315.042 160.647 315.392C160.995 315.918 161.343 316.443 161.343 317.144C161.343 317.845 160.995 318.371 160.647 318.721C160.125 319.072 159.603 319.422 158.907 319.422C157.514 319.422 156.644 318.195 156.644 316.969ZM164.65 308.559C164.65 307.332 165.695 306.281 166.913 306.105C167.435 306.105 168.131 306.281 168.479 306.806C169.002 307.157 169.176 307.858 169.176 308.383C169.176 309.61 168.131 310.661 166.913 310.836C166.391 310.836 165.695 310.661 165.172 310.135C164.998 309.785 164.65 309.259 164.65 308.559ZM172.657 317.144C172.657 315.918 173.701 314.866 174.919 314.691C176.138 314.691 177.182 315.742 177.182 316.969C177.182 318.195 176.138 319.247 174.919 319.422C174.223 319.422 173.701 319.247 173.179 318.721C173.005 318.195 172.657 317.67 172.657 317.144ZM177.878 324.854C177.878 323.627 178.922 322.576 180.141 322.401C180.663 322.401 181.359 322.576 181.707 323.102C182.229 323.452 182.403 324.153 182.403 324.679C182.403 325.905 181.359 326.956 180.141 327.132C179.445 327.132 178.922 326.956 178.4 326.431C178.226 326.08 177.878 325.555 177.878 324.854ZM185.536 335.016C184.318 335.016 183.274 333.965 183.1 332.739C183.1 331.512 184.144 330.461 185.362 330.286C186.581 330.286 187.625 331.337 187.625 332.563C187.799 333.965 186.755 335.016 185.536 335.016ZM184.84 320.298L188.843 317.845V326.256L184.84 320.298ZM192.324 342.025C191.976 342.551 191.28 342.726 190.758 342.726C190.061 342.726 189.539 342.551 189.017 342.025C188.495 341.675 188.321 340.974 188.321 340.448C188.321 339.747 188.495 339.222 189.017 338.696C189.365 338.17 190.061 337.995 190.584 337.995C191.28 337.995 191.802 338.17 192.324 338.696C192.846 339.046 193.02 339.747 193.02 340.273C193.02 340.974 192.672 341.675 192.324 342.025ZM190.584 328.533V316.794L192.498 315.567V331.162L190.584 328.533ZM195.805 336.418L193.891 333.615V314.691L195.805 313.465V336.418ZM199.46 339.397L198.416 339.923L197.546 338.696V312.589L199.46 311.362V339.397ZM202.941 337.294L201.027 338.346V310.486L202.941 309.259V337.294ZM206.422 335.192L204.508 336.243V308.208L206.422 306.982V335.192ZM209.903 333.089L207.989 334.14V306.105L209.903 304.879V333.089ZM213.384 330.986L211.47 332.038V304.003L213.384 302.776V330.986ZM216.865 328.884L214.951 329.935V301.9L216.865 300.674V328.884ZM220.346 326.781L218.431 327.833V299.798L220.346 298.571V326.781ZM223.827 324.679L221.912 325.73V297.695L223.827 296.469V324.679ZM227.308 322.576L225.393 323.627V295.768H225.045L227.308 294.366V322.576ZM230.789 320.473L228.874 321.525V293.49L230.789 292.263V320.473ZM234.27 318.371L232.355 319.422V291.387L234.27 290.161V318.371ZM237.751 316.268L235.836 317.319V289.285H235.662L237.751 288.058V316.268ZM241.232 314.166L239.317 315.217V287.182L241.232 285.955V314.166ZM244.887 312.063L242.972 313.114V285.079L244.887 283.853V312.063ZM248.368 310.135L246.453 311.187V282.977L248.368 281.75V310.135ZM251.849 308.033L249.934 309.084V280.874L251.849 279.648V308.033ZM255.33 305.93L253.415 306.982V278.772L254.808 277.895L255.33 278.772V305.93ZM258.811 303.828L256.896 304.879V281.4L258.811 284.554V303.828ZM262.292 301.725L260.377 302.776V287.182L262.292 290.336V301.725ZM263.858 300.674V292.964L267.165 298.571L263.858 300.674ZM269.602 297.345L255.678 274.391L183.274 318.196L172.483 302.426L167.087 294.366L163.432 299.622L162.91 300.499L150.9 318.02L78.4961 274.216L64.5722 297.52L15.1423 267.733C36.8984 264.053 82.6733 257.044 131.233 255.292C132.625 274.041 148.464 288.934 167.435 288.934C186.581 288.934 202.245 274.041 203.637 255.292C251.849 257.044 297.624 263.878 319.38 267.733L269.602 297.345ZM307.022 99.1733C308.241 103.203 313.984 117.221 331.389 119.323V267.032C321.294 265.105 264.554 254.591 203.463 252.489V252.314C203.463 251.087 203.463 250.036 203.289 248.809C245.931 250.386 287.181 254.942 325.82 262.476L327.386 262.827V121.952H325.994C325.82 121.952 308.067 122.302 303.715 105.306L303.541 104.255H281.785V96.545H210.425L213.558 93.3911H283.526V98.9981H307.022V99.1733Z" fill="url(#paint8_linear)"/>
<path d="M279.349 279.472C277.782 279.297 276.39 280.524 276.39 282.276C276.39 282.977 276.564 283.853 277.086 284.379C277.608 284.904 278.304 285.255 279.001 285.255H279.175C279.871 285.255 280.567 285.079 281.089 284.554C281.611 284.028 281.959 283.327 281.959 282.626C281.959 281.925 281.785 281.049 281.263 280.524C280.915 279.823 280.219 279.472 279.349 279.472Z" fill="url(#paint9_linear)"/>
<path d="M293.969 271.412C293.273 271.412 292.402 271.588 291.88 272.113C291.358 272.639 291.01 273.34 291.01 274.041C291.01 274.742 291.184 275.618 291.706 276.143C292.228 276.669 292.925 277.019 293.621 277.019H293.795C294.491 277.019 295.187 276.844 295.709 276.318C296.231 275.793 296.58 275.092 296.58 274.391C296.58 273.69 296.406 272.814 295.883 272.288C295.361 271.763 294.665 271.412 293.969 271.412Z" fill="url(#paint10_linear)"/>
<path d="M301.105 267.382C299.538 267.207 298.146 268.434 298.146 270.186C298.146 270.887 298.32 271.763 298.842 272.288C299.364 272.814 300.061 273.165 300.757 273.165H300.931C301.627 273.165 302.323 272.989 302.845 272.464C303.367 271.938 303.716 271.237 303.716 270.536C303.89 268.959 302.671 267.558 301.105 267.382Z" fill="url(#paint11_linear)"/>
<path d="M144.287 262.827C146.375 265.63 149.16 267.032 151.945 267.032C154.904 267.032 157.688 265.455 159.603 262.827C161.518 260.023 162.736 256.519 162.736 252.839C162.736 248.985 161.692 245.48 159.603 242.852C157.514 240.048 154.73 238.471 151.771 238.471C148.986 238.471 146.027 240.048 144.113 242.677C142.024 245.305 140.98 248.985 140.98 252.664C141.154 256.694 142.372 260.198 144.287 262.827ZM157.862 242.677L158.211 243.027V262.476C158.037 262.651 158.037 262.827 157.862 262.827V242.677ZM147.594 241.45C148.986 240.399 150.552 239.873 152.119 239.873C153.685 239.873 155.252 240.399 156.644 241.45V264.228C155.252 265.28 153.685 265.805 152.119 265.805C150.552 265.805 148.986 265.28 147.594 264.228V241.45ZM143.068 256.694C142.72 255.468 142.546 254.066 142.546 252.839C142.546 251.613 142.72 250.211 143.068 248.985V256.694Z" fill="url(#paint12_linear)"/>
<path d="M182.229 260.724C183.274 260.724 184.318 260.549 185.362 260.198L178.574 266.857L179.618 267.908L189.887 257.395C191.976 255.292 193.02 252.489 193.02 249.51C193.02 244.078 189.191 238.471 182.055 238.471C175.963 238.471 171.09 243.378 171.09 249.51C171.264 255.818 175.963 260.724 182.229 260.724ZM188.147 242.151C188.321 242.326 188.321 242.326 188.495 242.501V257.045C188.321 257.22 188.321 257.22 188.147 257.395V242.151ZM177.704 241.1C179.096 240.399 180.663 239.873 182.229 239.873C183.97 239.873 185.362 240.224 186.754 241.1V258.096C185.362 258.797 183.796 259.322 182.229 259.322C180.663 259.322 179.096 258.972 177.704 258.271V241.1ZM173.005 252.664C172.657 251.613 172.482 250.737 172.482 249.685C172.482 248.634 172.657 247.583 173.005 246.707V252.664Z" fill="url(#paint13_linear)"/>
<path d="M48.7336 150.337C48.7336 146.833 46.1229 143.153 41.7717 143.153H24.8889V195.017H39.335C44.7305 195.017 49.7779 192.915 53.433 189.06L69.7936 172.414V169.436L57.9582 181.35C58.6544 179.248 59.0025 176.97 59.0025 174.867C59.0025 166.282 53.4329 158.572 45.4267 155.944C47.6893 154.717 48.7336 152.615 48.7336 150.337ZM28.3699 192.915H27.1516V145.256H28.3699V192.915ZM50.126 160.675C50.4741 161.025 50.9963 161.376 51.3444 161.726V188.534L50.126 189.41V160.675ZM41.7717 155.068H38.6388V157.17H39.509C42.4679 157.17 45.4267 157.871 48.0374 159.273V190.637C45.4267 192.039 42.4679 192.74 39.509 192.74H36.3761V145.256H41.7717C44.3824 145.256 46.645 147.358 46.645 149.986C46.645 152.79 44.5565 155.068 41.7717 155.068Z" fill="url(#paint14_linear)"/>
<path d="M79.8884 143.153V196.419L99.9041 176.444V173.466L91.2016 182.227V143.153H79.8884ZM83.0213 190.111L81.803 191.338V145.256H83.0213V190.111Z" fill="url(#paint15_linear)"/>
<path d="M119.572 182.227C118.353 182.227 117.135 181.701 116.265 180.825L116.091 180.65L114.698 182.051L114.872 182.227C116.091 183.453 117.831 184.154 119.572 184.154C122.705 184.154 126.012 181.876 126.012 177.846C126.012 173.466 122.356 170.837 118.876 170.837C113.306 170.837 109.825 175.743 109.825 180.474C109.825 184.855 112.262 189.586 115.743 192.214C118.179 193.966 121.486 195.017 124.793 195.017C129.667 195.017 134.54 193.09 137.673 189.936L150.901 176.795V173.816L141.85 182.927C142.372 181.35 142.546 179.773 142.546 178.021C142.546 173.991 140.98 170.312 138.195 167.508C135.584 164.88 131.755 162.953 128.274 161.551C128.448 160.5 128.448 156.995 128.448 145.256C130.015 145.431 131.581 146.132 132.799 147.183V151.739H134.888V143.153H132.799V144.73C131.233 143.679 129.318 143.153 127.578 143.153C122.705 143.153 117.309 147.008 117.309 153.316C117.309 159.273 122.879 161.726 127.926 163.829C129.144 164.354 130.363 164.88 131.407 165.406V191.513C129.318 192.389 127.056 192.74 124.793 192.74C121.834 192.74 119.05 191.864 116.961 190.462C114.002 188.359 111.914 184.329 111.914 180.65C111.914 176.444 114.872 173.115 118.701 173.115C121.66 173.115 123.749 175.043 123.749 178.021C123.749 180.65 121.66 182.227 119.572 182.227ZM120.442 156.645C119.746 155.769 119.572 154.542 119.572 153.316C119.572 151.914 119.92 150.687 120.442 149.461V156.645ZM133.496 166.632L134.714 167.333V189.761L133.496 190.462V166.632Z" fill="url(#paint16_linear)"/>
<path d="M198.416 145.256V143.153H175.615C166.913 143.153 160.821 148.059 160.821 155.068C160.821 159.448 163.606 164.179 169.698 164.179C174.049 164.179 177.008 160.149 177.008 156.645C177.008 152.79 174.049 150.863 170.916 150.863C169.176 150.863 167.435 151.563 166.043 152.79L165.869 152.965L167.261 154.542L167.435 154.367C168.479 153.491 169.698 152.965 171.09 152.965C173.353 152.965 174.919 154.542 174.919 156.645C174.919 159.974 171.96 162.076 169.35 162.076C165.347 162.076 162.91 158.572 162.91 155.068C162.91 147.358 171.612 145.256 176.312 145.256H179.27V196.419L201.723 173.816V170.837L190.584 181.876V145.08H198.416V145.256ZM182.403 190.111L181.185 191.338V145.256H182.403V190.111Z" fill="url(#paint17_linear)"/>
<path d="M243.669 156.995C243.669 149.286 237.403 143.153 229.919 143.153H211.469V195.017H222.783V170.837H229.048C230.093 170.837 231.137 171.013 232.181 171.188V196.419L252.023 176.62V173.466L243.669 182.051C243.146 176.62 239.839 172.064 234.966 169.961C240.188 167.859 243.669 162.602 243.669 156.995ZM214.776 192.915H213.558V145.256H214.776V192.915ZM232.181 168.56C231.137 168.735 230.093 168.735 229.048 168.735H222.783V145.256H229.919C230.615 145.256 231.485 145.256 232.181 145.431V168.56ZM235.662 172.59V190.111L234.444 191.338V171.889C234.792 172.064 235.14 172.239 235.662 172.59ZM235.662 167.158C235.314 167.333 234.966 167.508 234.444 167.683V146.132C234.966 146.307 235.314 146.482 235.662 146.833V167.158Z" fill="url(#paint18_linear)"/>
<path d="M295.535 150.863C291.88 145.956 286.833 143.153 281.611 143.153C276.39 143.153 271.516 145.956 267.687 150.863C264.032 155.769 261.944 162.252 261.944 168.91C261.944 175.743 264.032 182.227 267.687 187.133C271.342 192.039 276.216 194.842 281.611 194.842C285.788 194.842 289.965 192.915 293.446 189.41L310.329 172.414V169.436L298.668 181.175C300.234 177.32 301.105 172.94 301.105 168.56C301.105 162.076 299.19 155.593 295.535 150.863ZM265.251 177.846C264.38 175.043 264.032 172.064 264.032 169.085C264.032 166.107 264.38 163.128 265.251 160.324V177.846ZM289.965 189.936C287.355 191.864 284.57 192.915 281.611 192.915C278.826 192.915 275.868 191.864 273.257 189.936V148.234C275.868 146.307 278.652 145.256 281.611 145.256C284.57 145.256 287.355 146.307 289.965 148.234V189.936ZM293.098 186.782C292.924 186.957 292.75 187.133 292.576 187.483C292.402 187.658 292.228 187.834 292.054 188.009V149.986L293.098 151.213V186.782Z" fill="url(#paint19_linear)"/>
<path d="M310.852 207.458H23.8447V207.984H310.852V207.458Z" fill="url(#paint20_linear)"/>
<path d="M310.852 211.838H23.8447V212.364H310.852V211.838Z" fill="url(#paint21_linear)"/>
<path d="M310.852 131.063H23.8447V131.589H310.852V131.063Z" fill="url(#paint22_linear)"/>
<path d="M310.852 135.443H23.8447V135.969H310.852V135.443Z" fill="url(#paint23_linear)"/>
<path d="M190.061 293.139C189.017 293.665 188.147 294.716 187.799 295.943L188.147 296.118C188.495 295.067 189.191 294.015 190.236 293.49C190.932 293.139 191.628 292.964 192.324 292.964L195.979 299.798C195.631 301.199 195.109 302.776 194.761 304.178L194.935 304.529L199.112 302.251L198.938 301.9L195.283 304.003C195.805 302.251 196.327 300.499 196.849 298.922C197.197 297.695 197.023 296.469 196.501 295.417C195.979 294.366 194.935 293.49 193.716 293.139C192.498 292.439 191.28 292.614 190.061 293.139ZM196.327 298.746L196.153 299.272L192.846 292.964C193.02 292.964 193.194 292.964 193.368 292.964L196.327 298.746Z" fill="url(#paint24_linear)"/>
<path d="M199.286 288.233C198.242 288.759 197.546 289.81 197.197 291.387C197.023 292.789 197.371 294.366 198.068 295.768C198.764 297.169 199.982 298.221 201.201 298.922C202.593 299.622 203.811 299.447 204.856 298.922C205.9 298.396 206.596 297.345 206.944 295.768C207.118 294.366 206.77 292.789 206.074 291.387C205.378 289.985 204.333 288.934 202.941 288.233C201.723 287.708 200.33 287.708 199.286 288.233ZM199.982 297.52C199.286 296.994 198.764 296.293 198.416 295.592C198.068 294.892 197.72 294.015 197.546 293.139L199.982 297.52ZM204.856 298.571C204.159 298.922 203.463 299.097 202.767 298.922L198.068 290.161C198.416 289.46 198.938 288.934 199.46 288.584C200.156 288.233 200.852 288.058 201.549 288.233L206.248 296.994C205.9 297.695 205.552 298.221 204.856 298.571ZM206.596 295.943C206.596 296.118 206.596 296.293 206.422 296.469L202.071 288.233L202.593 288.409L206.596 295.943Z" fill="url(#paint25_linear)"/>
<path d="M206.77 289.285L207.466 287.182L211.818 295.417L214.08 294.191L208.337 283.152L206.422 289.109L206.77 289.285ZM207.64 286.131L212.166 294.716L211.818 294.892L207.466 286.656L207.64 286.131Z" fill="url(#paint26_linear)"/>
<path d="M217.561 282.802C217.561 282.451 217.387 282.101 217.213 281.925C216.517 280.699 214.951 279.998 213.558 280.699C212.166 281.4 211.818 283.152 212.34 284.378C212.514 284.729 212.688 284.904 212.862 285.079C212.166 286.481 211.992 288.058 212.688 289.46C213.906 291.738 216.691 292.614 218.954 291.562C219.998 291.037 220.868 289.985 221.216 288.759C221.564 287.532 221.39 286.306 220.868 285.255C220.346 284.028 219.128 282.977 217.561 282.802ZM214.428 290.862C213.906 290.511 213.384 289.985 213.21 289.285C212.862 288.759 212.688 288.058 212.688 287.357L214.428 290.862ZM218.954 291.387C218.258 291.738 217.561 291.913 216.865 291.913L213.384 285.255C213.036 284.904 212.862 284.729 212.688 284.378C212.166 283.327 212.514 281.75 213.732 281.225C214.951 280.524 216.343 281.225 216.865 282.276C217.039 282.626 217.039 282.802 217.039 283.327L220.52 289.985C220.172 290.511 219.65 291.037 218.954 291.387ZM221.042 288.934C221.042 289.109 220.868 289.285 220.868 289.46L217.735 283.152C217.909 283.152 218.083 283.152 218.258 283.327L221.042 288.934Z" fill="url(#paint27_linear)"/>
<path d="M134.888 301.375L138.021 296.118L139.413 296.994L139.587 296.644L138.195 295.768L139.587 293.315L137.325 291.913L133.496 298.221L130.711 298.922C131.233 298.571 131.581 298.045 131.929 297.52C132.799 296.118 132.799 294.541 132.103 292.964L133.67 292.614L133.496 292.263L127.404 293.84C126.36 293.315 125.315 293.665 124.793 294.366L122.008 295.067C121.138 295.242 119.746 295.242 118.701 294.716C118.005 294.366 117.483 293.84 117.135 293.139L118.875 289.985L124.619 293.315C126.011 290.686 125.141 288.058 123.053 286.832C120.79 285.605 118.005 286.306 116.787 288.584C115.568 290.862 116.265 293.665 118.527 294.892C119.572 295.592 121.138 295.592 122.008 295.417L124.445 294.716C123.749 296.118 123.923 298.045 125.837 299.272C126.185 299.447 126.708 299.798 127.23 299.798C127.752 299.798 128.274 299.798 128.97 299.622L132.973 298.571L130.885 302.075C130.885 302.251 130.885 302.251 130.885 302.251H131.059L138.369 300.499L138.717 300.148L134.888 301.375ZM117.657 288.934C118.005 288.408 118.527 287.883 119.049 287.532L117.135 290.862C117.135 290.161 117.309 289.46 117.657 288.934ZM125.315 289.635L123.749 292.263L123.401 292.088L124.967 289.285C125.315 289.46 125.315 289.635 125.315 289.635ZM121.312 286.832C122.008 286.832 122.704 287.007 123.401 287.357C124.097 287.708 124.619 288.233 124.967 288.934L123.227 292.088L119.572 289.985L121.312 286.832ZM127.23 294.015H126.882C127.056 294.015 127.056 294.015 127.23 294.015ZM126.534 299.097C125.141 298.221 124.445 296.469 125.315 295.067L127.752 294.366C128.274 294.716 128.448 295.768 128.1 296.293C127.752 296.819 127.056 296.994 126.708 296.644C126.534 296.469 126.36 296.293 126.36 295.943V295.768C126.36 295.768 126.185 295.768 126.011 295.768V295.943C126.011 296.293 126.36 296.644 126.534 296.819C127.23 297.169 128.1 296.819 128.448 296.293C128.796 295.592 128.796 294.716 128.274 294.015L131.929 293.139L128.274 299.447C127.578 299.622 127.056 299.447 126.534 299.097ZM128.622 299.447L132.277 293.315C132.277 293.49 132.451 293.665 132.451 293.84L129.144 299.272C128.97 299.447 128.796 299.447 128.622 299.447ZM131.929 302.075L137.673 292.614L138.021 292.789L132.451 301.9L131.929 302.075Z" fill="url(#paint28_linear)"/>
<path d="M138.543 303.828C137.847 303.477 137.151 303.652 136.802 304.353C136.454 305.054 136.628 305.755 137.325 306.106C138.021 306.456 138.717 306.281 139.065 305.58C139.413 305.054 139.239 304.178 138.543 303.828ZM137.151 305.405C136.977 305.054 136.977 304.879 137.151 304.529C137.325 304.178 137.673 304.003 137.847 304.003L137.151 305.405Z" fill="url(#paint29_linear)"/>
<defs>
<linearGradient id="paint0_linear" x1="167.008" y1="13.0038" x2="167.008" y2="337.725" gradientUnits="userSpaceOnUse">
<stop stop-color="#FFD165"/>
<stop offset="0.1333" stop-color="#834310"/>
<stop offset="0.2848" stop-color="#D68908"/>
<stop offset="0.4303" stop-color="#FFD165"/>
<stop offset="0.4393" stop-color="#FCCC5E"/>
<stop offset="0.4891" stop-color="#EDB13C"/>
<stop offset="0.5303" stop-color="#E3A128"/>
<stop offset="0.5576" stop-color="#E09B20"/>
<stop offset="0.7818" stop-color="#FFD165"/>
<stop offset="1" stop-color="#743105"/>
</linearGradient>
<linearGradient id="paint1_linear" x1="271.248" y1="13.004" x2="271.248" y2="337.725" gradientUnits="userSpaceOnUse">
<stop stop-color="#FFD165"/>
<stop offset="0.1333" stop-color="#834310"/>
<stop offset="0.2848" stop-color="#D68908"/>
<stop offset="0.4303" stop-color="#FFD165"/>
<stop offset="0.4393" stop-color="#FCCC5E"/>
<stop offset="0.4891" stop-color="#EDB13C"/>
<stop offset="0.5303" stop-color="#E3A128"/>
<stop offset="0.5576" stop-color="#E09B20"/>
<stop offset="0.7818" stop-color="#FFD165"/>
<stop offset="1" stop-color="#743105"/>
</linearGradient>
<linearGradient id="paint2_linear" x1="286.482" y1="13.004" x2="286.482" y2="337.725" gradientUnits="userSpaceOnUse">
<stop stop-color="#FFD165"/>
<stop offset="0.1333" stop-color="#834310"/>
<stop offset="0.2848" stop-color="#D68908"/>
<stop offset="0.4303" stop-color="#FFD165"/>
<stop offset="0.4393" stop-color="#FCCC5E"/>
<stop offset="0.4891" stop-color="#EDB13C"/>
<stop offset="0.5303" stop-color="#E3A128"/>
<stop offset="0.5576" stop-color="#E09B20"/>
<stop offset="0.7818" stop-color="#FFD165"/>
<stop offset="1" stop-color="#743105"/>
</linearGradient>
<linearGradient id="paint3_linear" x1="62.7283" y1="13.004" x2="62.7283" y2="337.725" gradientUnits="userSpaceOnUse">
<stop stop-color="#FFD165"/>
<stop offset="0.1333" stop-color="#834310"/>
<stop offset="0.2848" stop-color="#D68908"/>
<stop offset="0.4303" stop-color="#FFD165"/>
<stop offset="0.4393" stop-color="#FCCC5E"/>
<stop offset="0.4891" stop-color="#EDB13C"/>
<stop offset="0.5303" stop-color="#E3A128"/>
<stop offset="0.5576" stop-color="#E09B20"/>
<stop offset="0.7818" stop-color="#FFD165"/>
<stop offset="1" stop-color="#743105"/>
</linearGradient>
<linearGradient id="paint4_linear" x1="54.7472" y1="13.004" x2="54.7472" y2="337.725" gradientUnits="userSpaceOnUse">
<stop stop-color="#FFD165"/>
<stop offset="0.1333" stop-color="#834310"/>
<stop offset="0.2848" stop-color="#D68908"/>
<stop offset="0.4303" stop-color="#FFD165"/>
<stop offset="0.4393" stop-color="#FCCC5E"/>
<stop offset="0.4891" stop-color="#EDB13C"/>
<stop offset="0.5303" stop-color="#E3A128"/>
<stop offset="0.5576" stop-color="#E09B20"/>
<stop offset="0.7818" stop-color="#FFD165"/>
<stop offset="1" stop-color="#743105"/>
</linearGradient>
<linearGradient id="paint5_linear" x1="47.4937" y1="13.004" x2="47.4937" y2="337.725" gradientUnits="userSpaceOnUse">
<stop stop-color="#FFD165"/>
<stop offset="0.1333" stop-color="#834310"/>
<stop offset="0.2848" stop-color="#D68908"/>
<stop offset="0.4303" stop-color="#FFD165"/>
<stop offset="0.4393" stop-color="#FCCC5E"/>
<stop offset="0.4891" stop-color="#EDB13C"/>
<stop offset="0.5303" stop-color="#E3A128"/>
<stop offset="0.5576" stop-color="#E09B20"/>
<stop offset="0.7818" stop-color="#FFD165"/>
<stop offset="1" stop-color="#743105"/>
</linearGradient>
<linearGradient id="paint6_linear" x1="40.2398" y1="13.0028" x2="40.2398" y2="337.725" gradientUnits="userSpaceOnUse">
<stop stop-color="#FFD165"/>
<stop offset="0.1333" stop-color="#834310"/>
<stop offset="0.2848" stop-color="#D68908"/>
<stop offset="0.4303" stop-color="#FFD165"/>
<stop offset="0.4393" stop-color="#FCCC5E"/>
<stop offset="0.4891" stop-color="#EDB13C"/>
<stop offset="0.5303" stop-color="#E3A128"/>
<stop offset="0.5576" stop-color="#E09B20"/>
<stop offset="0.7818" stop-color="#FFD165"/>
<stop offset="1" stop-color="#743105"/>
</linearGradient>
<linearGradient id="paint7_linear" x1="32.9865" y1="13.004" x2="32.9865" y2="337.725" gradientUnits="userSpaceOnUse">
<stop stop-color="#FFD165"/>
<stop offset="0.1333" stop-color="#834310"/>
<stop offset="0.2848" stop-color="#D68908"/>
<stop offset="0.4303" stop-color="#FFD165"/>
<stop offset="0.4393" stop-color="#FCCC5E"/>
<stop offset="0.4891" stop-color="#EDB13C"/>
<stop offset="0.5303" stop-color="#E3A128"/>
<stop offset="0.5576" stop-color="#E09B20"/>
<stop offset="0.7818" stop-color="#FFD165"/>
<stop offset="1" stop-color="#743105"/>
</linearGradient>
<linearGradient id="paint8_linear" x1="167.008" y1="13.0038" x2="167.008" y2="337.725" gradientUnits="userSpaceOnUse">
<stop stop-color="#FFD165"/>
<stop offset="0.1333" stop-color="#834310"/>
<stop offset="0.2848" stop-color="#D68908"/>
<stop offset="0.4303" stop-color="#FFD165"/>
<stop offset="0.4393" stop-color="#FCCC5E"/>
<stop offset="0.4891" stop-color="#EDB13C"/>
<stop offset="0.5303" stop-color="#E3A128"/>
<stop offset="0.5576" stop-color="#E09B20"/>
<stop offset="0.7818" stop-color="#FFD165"/>
<stop offset="1" stop-color="#743105"/>
</linearGradient>
<linearGradient id="paint9_linear" x1="279.229" y1="13.0035" x2="279.229" y2="337.725" gradientUnits="userSpaceOnUse">
<stop stop-color="#FFD165"/>
<stop offset="0.1333" stop-color="#834310"/>
<stop offset="0.2848" stop-color="#D68908"/>
<stop offset="0.4303" stop-color="#FFD165"/>
<stop offset="0.4393" stop-color="#FCCC5E"/>
<stop offset="0.4891" stop-color="#EDB13C"/>
<stop offset="0.5303" stop-color="#E3A128"/>
<stop offset="0.5576" stop-color="#E09B20"/>
<stop offset="0.7818" stop-color="#FFD165"/>
<stop offset="1" stop-color="#743105"/>
</linearGradient>
<linearGradient id="paint10_linear" x1="293.736" y1="13.0028" x2="293.736" y2="337.725" gradientUnits="userSpaceOnUse">
<stop stop-color="#FFD165"/>
<stop offset="0.1333" stop-color="#834310"/>
<stop offset="0.2848" stop-color="#D68908"/>
<stop offset="0.4303" stop-color="#FFD165"/>
<stop offset="0.4393" stop-color="#FCCC5E"/>
<stop offset="0.4891" stop-color="#EDB13C"/>
<stop offset="0.5303" stop-color="#E3A128"/>
<stop offset="0.5576" stop-color="#E09B20"/>
<stop offset="0.7818" stop-color="#FFD165"/>
<stop offset="1" stop-color="#743105"/>
</linearGradient>
<linearGradient id="paint11_linear" x1="300.99" y1="13.0048" x2="300.99" y2="337.725" gradientUnits="userSpaceOnUse">
<stop stop-color="#FFD165"/>
<stop offset="0.1333" stop-color="#834310"/>
<stop offset="0.2848" stop-color="#D68908"/>
<stop offset="0.4303" stop-color="#FFD165"/>
<stop offset="0.4393" stop-color="#FCCC5E"/>
<stop offset="0.4891" stop-color="#EDB13C"/>
<stop offset="0.5303" stop-color="#E3A128"/>
<stop offset="0.5576" stop-color="#E09B20"/>
<stop offset="0.7818" stop-color="#FFD165"/>
<stop offset="1" stop-color="#743105"/>
</linearGradient>
<linearGradient id="paint12_linear" x1="152.047" y1="13.004" x2="152.047" y2="337.725" gradientUnits="userSpaceOnUse">
<stop stop-color="#FFD165"/>
<stop offset="0.1333" stop-color="#834310"/>
<stop offset="0.2848" stop-color="#D68908"/>
<stop offset="0.4303" stop-color="#FFD165"/>
<stop offset="0.4393" stop-color="#FCCC5E"/>
<stop offset="0.4891" stop-color="#EDB13C"/>
<stop offset="0.5303" stop-color="#E3A128"/>
<stop offset="0.5576" stop-color="#E09B20"/>
<stop offset="0.7818" stop-color="#FFD165"/>
<stop offset="1" stop-color="#743105"/>
</linearGradient>
<linearGradient id="paint13_linear" x1="182.21" y1="13.004" x2="182.21" y2="337.725" gradientUnits="userSpaceOnUse">
<stop stop-color="#FFD165"/>
<stop offset="0.1333" stop-color="#834310"/>
<stop offset="0.2848" stop-color="#D68908"/>
<stop offset="0.4303" stop-color="#FFD165"/>
<stop offset="0.4393" stop-color="#FCCC5E"/>
<stop offset="0.4891" stop-color="#EDB13C"/>
<stop offset="0.5303" stop-color="#E3A128"/>
<stop offset="0.5576" stop-color="#E09B20"/>
<stop offset="0.7818" stop-color="#FFD165"/>
<stop offset="1" stop-color="#743105"/>
</linearGradient>
<linearGradient id="paint14_linear" x1="47.4935" y1="13.0038" x2="47.4935" y2="337.725" gradientUnits="userSpaceOnUse">
<stop stop-color="#FFD165"/>
<stop offset="0.1333" stop-color="#834310"/>
<stop offset="0.2848" stop-color="#D68908"/>
<stop offset="0.4303" stop-color="#FFD165"/>
<stop offset="0.4393" stop-color="#FCCC5E"/>
<stop offset="0.4891" stop-color="#EDB13C"/>
<stop offset="0.5303" stop-color="#E3A128"/>
<stop offset="0.5576" stop-color="#E09B20"/>
<stop offset="0.7818" stop-color="#FFD165"/>
<stop offset="1" stop-color="#743105"/>
</linearGradient>
<linearGradient id="paint15_linear" x1="89.8884" y1="13.0038" x2="89.8884" y2="337.725" gradientUnits="userSpaceOnUse">
<stop stop-color="#FFD165"/>
<stop offset="0.1333" stop-color="#834310"/>
<stop offset="0.2848" stop-color="#D68908"/>
<stop offset="0.4303" stop-color="#FFD165"/>
<stop offset="0.4393" stop-color="#FCCC5E"/>
<stop offset="0.4891" stop-color="#EDB13C"/>
<stop offset="0.5303" stop-color="#E3A128"/>
<stop offset="0.5576" stop-color="#E09B20"/>
<stop offset="0.7818" stop-color="#FFD165"/>
<stop offset="1" stop-color="#743105"/>
</linearGradient>
<linearGradient id="paint16_linear" x1="130.37" y1="13.0038" x2="130.37" y2="337.725" gradientUnits="userSpaceOnUse">
<stop stop-color="#FFD165"/>
<stop offset="0.1333" stop-color="#834310"/>
<stop offset="0.2848" stop-color="#D68908"/>
<stop offset="0.4303" stop-color="#FFD165"/>
<stop offset="0.4393" stop-color="#FCCC5E"/>
<stop offset="0.4891" stop-color="#EDB13C"/>
<stop offset="0.5303" stop-color="#E3A128"/>
<stop offset="0.5576" stop-color="#E09B20"/>
<stop offset="0.7818" stop-color="#FFD165"/>
<stop offset="1" stop-color="#743105"/>
</linearGradient>
<linearGradient id="paint17_linear" x1="181.197" y1="13.0038" x2="181.197" y2="337.725" gradientUnits="userSpaceOnUse">
<stop stop-color="#FFD165"/>
<stop offset="0.1333" stop-color="#834310"/>
<stop offset="0.2848" stop-color="#D68908"/>
<stop offset="0.4303" stop-color="#FFD165"/>
<stop offset="0.4393" stop-color="#FCCC5E"/>
<stop offset="0.4891" stop-color="#EDB13C"/>
<stop offset="0.5303" stop-color="#E3A128"/>
<stop offset="0.5576" stop-color="#E09B20"/>
<stop offset="0.7818" stop-color="#FFD165"/>
<stop offset="1" stop-color="#743105"/>
</linearGradient>
<linearGradient id="paint18_linear" x1="231.778" y1="13.0038" x2="231.778" y2="337.725" gradientUnits="userSpaceOnUse">
<stop stop-color="#FFD165"/>
<stop offset="0.1333" stop-color="#834310"/>
<stop offset="0.2848" stop-color="#D68908"/>
<stop offset="0.4303" stop-color="#FFD165"/>
<stop offset="0.4393" stop-color="#FCCC5E"/>
<stop offset="0.4891" stop-color="#EDB13C"/>
<stop offset="0.5303" stop-color="#E3A128"/>
<stop offset="0.5576" stop-color="#E09B20"/>
<stop offset="0.7818" stop-color="#FFD165"/>
<stop offset="1" stop-color="#743105"/>
</linearGradient>
<linearGradient id="paint19_linear" x1="286.188" y1="13.0038" x2="286.188" y2="337.725" gradientUnits="userSpaceOnUse">
<stop stop-color="#FFD165"/>
<stop offset="0.1333" stop-color="#834310"/>
<stop offset="0.2848" stop-color="#D68908"/>
<stop offset="0.4303" stop-color="#FFD165"/>
<stop offset="0.4393" stop-color="#FCCC5E"/>
<stop offset="0.4891" stop-color="#EDB13C"/>
<stop offset="0.5303" stop-color="#E3A128"/>
<stop offset="0.5576" stop-color="#E09B20"/>
<stop offset="0.7818" stop-color="#FFD165"/>
<stop offset="1" stop-color="#743105"/>
</linearGradient>
<linearGradient id="paint20_linear" x1="167.307" y1="13.0067" x2="167.307" y2="337.723" gradientUnits="userSpaceOnUse">
<stop stop-color="#FFD165"/>
<stop offset="0.1333" stop-color="#834310"/>
<stop offset="0.2848" stop-color="#D68908"/>
<stop offset="0.4303" stop-color="#FFD165"/>
<stop offset="0.4393" stop-color="#FCCC5E"/>
<stop offset="0.4891" stop-color="#EDB13C"/>
<stop offset="0.5303" stop-color="#E3A128"/>
<stop offset="0.5576" stop-color="#E09B20"/>
<stop offset="0.7818" stop-color="#FFD165"/>
<stop offset="1" stop-color="#743105"/>
</linearGradient>
<linearGradient id="paint21_linear" x1="167.307" y1="13.0068" x2="167.307" y2="337.723" gradientUnits="userSpaceOnUse">
<stop stop-color="#FFD165"/>
<stop offset="0.1333" stop-color="#834310"/>
<stop offset="0.2848" stop-color="#D68908"/>
<stop offset="0.4303" stop-color="#FFD165"/>
<stop offset="0.4393" stop-color="#FCCC5E"/>
<stop offset="0.4891" stop-color="#EDB13C"/>
<stop offset="0.5303" stop-color="#E3A128"/>
<stop offset="0.5576" stop-color="#E09B20"/>
<stop offset="0.7818" stop-color="#FFD165"/>
<stop offset="1" stop-color="#743105"/>
</linearGradient>
<linearGradient id="paint22_linear" x1="167.307" y1="13.0056" x2="167.307" y2="337.722" gradientUnits="userSpaceOnUse">
<stop stop-color="#FFD165"/>
<stop offset="0.1333" stop-color="#834310"/>
<stop offset="0.2848" stop-color="#D68908"/>
<stop offset="0.4303" stop-color="#FFD165"/>
<stop offset="0.4393" stop-color="#FCCC5E"/>
<stop offset="0.4891" stop-color="#EDB13C"/>
<stop offset="0.5303" stop-color="#E3A128"/>
<stop offset="0.5576" stop-color="#E09B20"/>
<stop offset="0.7818" stop-color="#FFD165"/>
<stop offset="1" stop-color="#743105"/>
</linearGradient>
<linearGradient id="paint23_linear" x1="167.307" y1="13.0057" x2="167.307" y2="337.722" gradientUnits="userSpaceOnUse">
<stop stop-color="#FFD165"/>
<stop offset="0.1333" stop-color="#834310"/>
<stop offset="0.2848" stop-color="#D68908"/>
<stop offset="0.4303" stop-color="#FFD165"/>
<stop offset="0.4393" stop-color="#FCCC5E"/>
<stop offset="0.4891" stop-color="#EDB13C"/>
<stop offset="0.5303" stop-color="#E3A128"/>
<stop offset="0.5576" stop-color="#E09B20"/>
<stop offset="0.7818" stop-color="#FFD165"/>
<stop offset="1" stop-color="#743105"/>
</linearGradient>
<linearGradient id="paint24_linear" x1="193.54" y1="13.0038" x2="193.54" y2="337.725" gradientUnits="userSpaceOnUse">
<stop stop-color="#FFD165"/>
<stop offset="0.1333" stop-color="#834310"/>
<stop offset="0.2848" stop-color="#D68908"/>
<stop offset="0.4303" stop-color="#FFD165"/>
<stop offset="0.4393" stop-color="#FCCC5E"/>
<stop offset="0.4891" stop-color="#EDB13C"/>
<stop offset="0.5303" stop-color="#E3A128"/>
<stop offset="0.5576" stop-color="#E09B20"/>
<stop offset="0.7818" stop-color="#FFD165"/>
<stop offset="1" stop-color="#743105"/>
</linearGradient>
<linearGradient id="paint25_linear" x1="202.174" y1="13.0036" x2="202.174" y2="337.725" gradientUnits="userSpaceOnUse">
<stop stop-color="#FFD165"/>
<stop offset="0.1333" stop-color="#834310"/>
<stop offset="0.2848" stop-color="#D68908"/>
<stop offset="0.4303" stop-color="#FFD165"/>
<stop offset="0.4393" stop-color="#FCCC5E"/>
<stop offset="0.4891" stop-color="#EDB13C"/>
<stop offset="0.5303" stop-color="#E3A128"/>
<stop offset="0.5576" stop-color="#E09B20"/>
<stop offset="0.7818" stop-color="#FFD165"/>
<stop offset="1" stop-color="#743105"/>
</linearGradient>
<linearGradient id="paint26_linear" x1="210.152" y1="13.0038" x2="210.152" y2="337.725" gradientUnits="userSpaceOnUse">
<stop stop-color="#FFD165"/>
<stop offset="0.1333" stop-color="#834310"/>
<stop offset="0.2848" stop-color="#D68908"/>
<stop offset="0.4303" stop-color="#FFD165"/>
<stop offset="0.4393" stop-color="#FCCC5E"/>
<stop offset="0.4891" stop-color="#EDB13C"/>
<stop offset="0.5303" stop-color="#E3A128"/>
<stop offset="0.5576" stop-color="#E09B20"/>
<stop offset="0.7818" stop-color="#FFD165"/>
<stop offset="1" stop-color="#743105"/>
</linearGradient>
<linearGradient id="paint27_linear" x1="216.85" y1="13.0039" x2="216.85" y2="337.725" gradientUnits="userSpaceOnUse">
<stop stop-color="#FFD165"/>
<stop offset="0.1333" stop-color="#834310"/>
<stop offset="0.2848" stop-color="#D68908"/>
<stop offset="0.4303" stop-color="#FFD165"/>
<stop offset="0.4393" stop-color="#FCCC5E"/>
<stop offset="0.4891" stop-color="#EDB13C"/>
<stop offset="0.5303" stop-color="#E3A128"/>
<stop offset="0.5576" stop-color="#E09B20"/>
<stop offset="0.7818" stop-color="#FFD165"/>
<stop offset="1" stop-color="#743105"/>
</linearGradient>
<linearGradient id="paint28_linear" x1="128.225" y1="13.0037" x2="128.225" y2="337.725" gradientUnits="userSpaceOnUse">
<stop stop-color="#FFD165"/>
<stop offset="0.1333" stop-color="#834310"/>
<stop offset="0.2848" stop-color="#D68908"/>
<stop offset="0.4303" stop-color="#FFD165"/>
<stop offset="0.4393" stop-color="#FCCC5E"/>
<stop offset="0.4891" stop-color="#EDB13C"/>
<stop offset="0.5303" stop-color="#E3A128"/>
<stop offset="0.5576" stop-color="#E09B20"/>
<stop offset="0.7818" stop-color="#FFD165"/>
<stop offset="1" stop-color="#743105"/>
</linearGradient>
<linearGradient id="paint29_linear" x1="137.94" y1="13.0035" x2="137.94" y2="337.725" gradientUnits="userSpaceOnUse">
<stop stop-color="#FFD165"/>
<stop offset="0.1333" stop-color="#834310"/>
<stop offset="0.2848" stop-color="#D68908"/>
<stop offset="0.4303" stop-color="#FFD165"/>
<stop offset="0.4393" stop-color="#FCCC5E"/>
<stop offset="0.4891" stop-color="#EDB13C"/>
<stop offset="0.5303" stop-color="#E3A128"/>
<stop offset="0.5576" stop-color="#E09B20"/>
<stop offset="0.7818" stop-color="#FFD165"/>
<stop offset="1" stop-color="#743105"/>
</linearGradient>
</defs>
</svg>
