<svg width="170" height="12" viewBox="0 0 170 12" fill="none" xmlns="http://www.w3.org/2000/svg">
<path d="M64.6587 1.00704L59.5735 5.98584L64.6587 10.9646L69.7439 5.98584L64.6587 1.00704Z" stroke="#E29F25" stroke-miterlimit="10"/>
<path d="M74.8037 1.02486L69.7185 6.00366L74.8037 10.9825L79.8889 6.00366L74.8037 1.02486Z" stroke="#E29F25" stroke-miterlimit="10"/>
<path d="M84.9485 1.04244L79.8633 6.02124L84.9485 11L90.0337 6.02124L84.9485 1.04244Z" stroke="#E29F25" stroke-miterlimit="10"/>
<path d="M95.1548 0.999957L90.0696 5.97876L95.1548 10.9576L100.24 5.97876L95.1548 0.999957Z" stroke="#E29F25" stroke-miterlimit="10"/>
<path d="M105.3 1.01754L100.215 5.99634L105.3 10.9751L110.385 5.99634L105.3 1.01754Z" stroke="#E29F25" stroke-miterlimit="10"/>
<path d="M170 6.04224C118.619 6.04224 110.387 6.04224 110.387 6.04224" stroke="#E29F25" stroke-miterlimit="10"/>
<path d="M59.6126 6.04224C8.14475 6.04224 0 6.04224 0 6.04224" stroke="#E29F25" stroke-miterlimit="10"/>
</svg>
