<svg width="40" height="32" viewBox="0 0 40 32" fill="none" xmlns="http://www.w3.org/2000/svg">
<path d="M8.23243 1.91489C8.25723 1.91489 8.5361 1.87812 8.5361 1.87812C8.83636 1.83698 9.04711 1.55576 9.00685 1.24983C8.96659 0.943904 8.69024 0.728962 8.39019 0.770207L8.15871 0.802174C7.85856 0.84409 7.64858 1.12598 7.68972 1.4318C7.72735 1.71191 7.96256 1.91489 8.23243 1.91489Z" fill="#E29F25"/>
<path d="M38.945 8.17323H38.6595V5.85491C38.6595 4.04327 37.6035 2.41371 35.9692 1.70327C35.6733 1.57484 34.9495 1.40751 34.8074 1.3751C34.8001 1.37342 34.7927 1.37197 34.7853 1.37063C26.6349 -0.122682 18.3301 -0.397312 10.102 0.554338C9.80092 0.589211 9.58458 0.865965 9.6188 1.17256C9.65303 1.47938 9.92521 1.70047 10.2257 1.66482C18.3441 0.726247 26.5382 0.996406 34.5799 2.46848C34.893 2.5399 35.3905 2.66677 35.5388 2.73126C36.7682 3.26565 37.5625 4.49171 37.5625 5.85469V8.17625H36.5976C36.2947 8.17625 36.0491 8.4264 36.0491 8.73512C36.0491 9.04384 36.2947 9.29399 36.5976 9.29399H38.3965V14.4134L28.3253 12.7694V9.29399H34.9973C35.3002 9.29399 35.5459 9.04384 35.5459 8.73512C35.5459 8.4264 35.3002 8.17625 34.9973 8.17625H29.1391V7.3214C29.1391 7.04364 28.9389 6.80802 28.6691 6.76834C22.9086 5.91885 17.0637 5.89549 11.2968 6.69825L10.7978 6.76778C10.5261 6.80567 10.3236 7.04207 10.3236 7.32151V8.17636H8.007C7.70411 8.17636 7.45847 8.42651 7.45847 8.73523C7.45847 9.04395 7.70411 9.29411 8.007 9.29411H11.1682V12.7695L1.09706 14.4135V9.29411H5.69703C5.99993 9.29411 6.24556 9.04395 6.24556 8.73523C6.24556 8.42651 5.99993 8.17636 5.69703 8.17636H1.90011V5.20215C1.90011 3.8869 2.83239 2.78927 4.05912 2.55946C4.21425 2.5304 5.78052 2.29992 6.34781 2.20693C6.64687 2.15797 6.85037 1.87104 6.80221 1.56646C6.75405 1.26165 6.47298 1.05475 6.17349 1.10337C5.61443 1.19503 4.12451 1.41612 3.94942 1.44451C2.16856 1.73267 0.803048 3.3079 0.803048 5.20215V8.17323H0.54853C0.245632 8.17323 0 8.42338 0 8.7321V15.0691C0 15.2327 0.0704313 15.3883 0.192644 15.4944C0.314856 15.6005 0.476563 15.6469 0.635308 15.621L11.8035 13.798C12.0695 13.7545 12.2652 13.5205 12.2652 13.246V8.7321C12.2652 8.42338 12.0196 8.17323 11.7167 8.17323H11.4205V7.80918L11.4452 7.80583C16.954 7.03894 22.535 7.03928 28.0421 7.80728V8.17323H27.7768C27.4739 8.17323 27.2283 8.42338 27.2283 8.7321V13.246C27.2283 13.5205 27.424 13.7545 27.69 13.798L38.8582 15.621C38.8872 15.6257 38.9161 15.628 38.945 15.628C39.0744 15.628 39.2008 15.5813 39.3009 15.4945C39.4231 15.3884 39.4935 15.2328 39.4935 15.0692V8.73221C39.4935 8.42349 39.2479 8.17323 38.945 8.17323Z" fill="#E29F25"/>
<path d="M38.0773 21.3386H35.9452C30.9037 21.3386 26.8023 17.1598 26.8023 12.0225L26.7982 9.01323C26.7979 8.74363 26.6086 8.51259 26.3483 8.46419C22.1041 7.67417 17.7957 7.64835 13.5427 8.38785L13.1104 8.46307C12.8469 8.5089 12.6541 8.74161 12.6541 9.01401V12.858C12.4533 15.1625 11.4204 17.2981 9.74385 18.8732C8.05185 20.4631 5.85148 21.3386 3.54809 21.3386H1.34223C1.03933 21.3386 0.793701 21.5888 0.793701 21.8975V29.4207C0.793701 29.7294 1.03933 29.9796 1.34223 29.9796H3.98527V31.4409C3.98527 31.7496 4.2309 31.9998 4.5338 31.9998H7.75181C8.05471 31.9998 8.30034 31.7496 8.30034 31.4409V29.9796H23.4987C23.8016 29.9796 24.0472 29.7294 24.0472 29.4207C24.0472 29.112 23.8016 28.8618 23.4987 28.8618H7.75181C7.44891 28.8618 7.20328 29.112 7.20328 29.4207V30.882H5.08233V29.4207C5.08233 29.112 4.8367 28.8618 4.5338 28.8618H1.89076V27.8641H6.21735C6.52025 27.8641 6.76588 27.614 6.76588 27.3053C6.76588 26.9965 6.52025 26.7464 6.21735 26.7464H1.89076V22.4564H3.5482C6.12794 22.4564 8.59237 21.4758 10.4877 19.695C12.3715 17.9248 13.5299 15.5225 13.7492 12.9306C13.7505 12.9146 13.7513 12.8986 13.7513 12.8825V9.48559C17.7194 8.7984 21.7378 8.79772 25.7019 9.48324L25.7053 12.0234C25.7053 17.7762 30.2989 22.4565 35.9453 22.4565H37.5289V26.7465H35.1437C34.8408 26.7465 34.5951 26.9966 34.5951 27.3054C34.5951 27.6141 34.8408 27.8642 35.1437 27.8642H37.5289V28.8619H34.886C34.5831 28.8619 34.3374 29.1121 34.3374 29.4208V30.8822H32.2163V29.4208C32.2163 29.1121 31.9706 28.8619 31.6677 28.8619H25.4076C25.1047 28.8619 24.859 29.1121 24.859 29.4208C24.859 29.7295 25.1047 29.9797 25.4076 29.9797H31.1192V31.441C31.1192 31.7498 31.3648 31.9999 31.6677 31.9999H34.8857C35.1886 31.9999 35.4343 31.7498 35.4343 31.441V29.9797H38.0772C38.3801 29.9797 38.6257 29.7295 38.6257 29.4208V21.8975C38.6258 21.5889 38.3802 21.3386 38.0773 21.3386Z" fill="#E29F25"/>
<path d="M7.25122 27.3052C7.25122 27.6139 7.49685 27.8641 7.79975 27.8641H30.8929C31.1958 27.8641 31.4414 27.6139 31.4414 27.3052C31.4414 26.9965 31.1958 26.7463 30.8929 26.7463H7.79975C7.49674 26.7463 7.25122 26.9966 7.25122 27.3052Z" fill="#E29F25"/>
<path d="M33.6619 27.8641C33.9648 27.8641 34.2104 27.6139 34.2104 27.3052C34.2104 26.9965 33.9648 26.7463 33.6619 26.7463H32.822C32.5191 26.7463 32.2734 26.9965 32.2734 27.3052C32.2734 27.6139 32.5191 27.8641 32.822 27.8641H33.6619Z" fill="#E29F25"/>
<path d="M23.3235 23.5533C23.0963 23.7574 23.0745 24.1106 23.2748 24.3422C23.4751 24.5737 23.8218 24.596 24.049 24.3918C25.4629 23.1217 26.2738 21.2927 26.2738 19.3736C26.2738 15.6859 23.3292 12.6858 19.7098 12.6858C16.0904 12.6858 13.1458 15.6859 13.1458 19.3736C13.1458 23.0613 16.0904 26.0614 19.7098 26.0614C20.6349 26.0614 21.5297 25.8691 22.3692 25.4897C22.6461 25.3646 22.771 25.0344 22.6482 24.7522C22.5253 24.4702 22.2014 24.3425 21.9243 24.468C21.2258 24.7836 20.4807 24.9437 19.7097 24.9437C16.6952 24.9437 14.2427 22.4449 14.2427 19.3736C14.2427 16.3023 16.6952 13.8035 19.7097 13.8035C22.7243 13.8035 25.1767 16.3023 25.1767 19.3736C25.1768 20.9719 24.5012 22.4954 23.3235 23.5533Z" fill="#E29F25"/>
<path d="M19.5836 17.291C19.886 17.2724 20.1162 17.0075 20.0979 16.6993C20.0796 16.3913 19.8184 16.1571 19.5172 16.1753C17.8618 16.2776 16.5649 17.6824 16.5649 19.3736C16.5649 21.1405 17.9758 22.5779 19.7099 22.5779C21.444 22.5779 22.8548 21.1405 22.8548 19.3736C22.8548 18.3851 22.4172 17.4671 21.6542 16.855C21.416 16.664 21.0713 16.7059 20.8838 16.9485C20.6965 17.1909 20.7375 17.5424 20.9755 17.7332C21.4726 18.1319 21.7578 18.7299 21.7578 19.3736C21.7578 20.5241 20.8391 21.4601 19.7099 21.4601C18.5807 21.4601 17.662 20.5241 17.662 19.3736C17.6621 18.2723 18.5061 17.3574 19.5836 17.291Z" fill="#E29F25"/>
</svg>
