<svg width="13" height="32" viewBox="0 0 13 32" fill="none" xmlns="http://www.w3.org/2000/svg">
<path d="M10.1899 10.5032C10.1498 10.4693 10.1061 10.4325 10.0603 10.3976L9.85764 3.21676H10.3123C10.6152 3.21676 10.8608 2.9665 10.8608 2.65789V0.558873C10.8608 0.250263 10.6152 0 10.3123 0H2.12073C1.81783 0 1.5722 0.250263 1.5722 0.558873V2.65778C1.5722 2.96639 1.81783 3.21665 2.12073 3.21665H2.57546L2.52741 4.92445C2.51874 5.23295 2.75724 5.49026 3.06003 5.49909C3.36348 5.50937 3.61536 5.26492 3.62403 4.95642L3.67296 3.21665H8.76014L8.95552 10.1682H3.47757L3.55338 7.46911C3.56205 7.16062 3.32354 6.90331 3.02076 6.89448C2.71588 6.88487 2.46542 7.12865 2.45676 7.43715L2.37283 10.4242C2.3329 10.4535 1.95397 10.7601 1.82123 10.8952C0.646827 12.0911 0 13.6814 0 15.3733C0 15.6819 0.245632 15.9321 0.54853 15.9321H4.95279V28.7058C4.95279 28.7697 4.96354 28.833 4.98449 28.8931L5.69967 30.9419C5.77745 31.1647 5.98435 31.3135 6.21649 31.3135C6.44852 31.3135 6.65554 31.1647 6.73332 30.9419L7.44849 28.8931C7.46944 28.8329 7.4802 28.7697 7.4802 28.7058V23.268C7.4802 22.9594 7.23456 22.7091 6.93167 22.7091C6.62877 22.7091 6.38314 22.9594 6.38314 23.268V28.6095L6.21649 29.0869L6.04985 28.6095V15.9321H6.38314V19.3543C6.38314 19.6629 6.62877 19.9132 6.93167 19.9132C7.23456 19.9132 7.4802 19.6629 7.4802 19.3543V15.9321H11.8845C12.1874 15.9321 12.433 15.6819 12.433 15.3733C12.4331 13.4858 11.6155 11.7107 10.1899 10.5032ZM2.66937 2.0989V1.11775H9.76384V2.0989H2.66937ZM1.12602 14.8144C1.24878 13.6325 1.76023 12.5375 2.59696 11.6857C2.70634 11.5743 2.98433 11.3127 3.01845 11.286H9.39259C9.42276 11.308 9.46083 11.3393 9.48858 11.3628C10.5208 12.2372 11.166 13.4725 11.3069 14.8145H1.12602V14.8144Z" fill="#E29F25"/>
<path d="M6.93183 20.5054C6.62893 20.5054 6.3833 20.7556 6.3833 21.0642V21.5689C6.3833 21.8775 6.62893 22.1278 6.93183 22.1278C7.23473 22.1278 7.48036 21.8775 7.48036 21.5689V21.0642C7.48036 20.7556 7.23473 20.5054 6.93183 20.5054Z" fill="#E29F25"/>
<path d="M7.16773 6.74184L7.23805 9.14142C7.24694 9.44422 7.49059 9.68364 7.78603 9.68364C7.79152 9.68364 7.79722 9.68364 7.80271 9.68341C8.1055 9.67425 8.34367 9.41661 8.33467 9.10822L8.26435 6.70864C8.25535 6.40015 8.0004 6.15514 7.6998 6.16665C7.39679 6.1757 7.15873 6.43334 7.16773 6.74184Z" fill="#E29F25"/>
<path d="M7.62366 3.57352C7.32087 3.58269 7.0827 3.84033 7.09181 4.14883L7.11759 5.0295C7.12647 5.3323 7.37013 5.57172 7.66557 5.57172C7.67105 5.57172 7.67676 5.57172 7.68224 5.5715C7.98503 5.56233 8.2232 5.30469 8.2141 4.99619L8.18832 4.11552C8.17932 3.80691 7.92447 3.5638 7.62366 3.57352Z" fill="#E29F25"/>
</svg>
