<svg width="90" height="55" viewBox="0 0 90 55" fill="none" xmlns="http://www.w3.org/2000/svg">
<path d="M76.4009 25.9802C73.2777 26.242 70.5448 27.1581 68.5277 29.7103C67.6168 30.8883 66.6408 32.0008 65.6648 33.1133C65.4045 33.4405 65.1442 33.7023 64.884 34.0295C64.949 34.0949 65.0141 34.0949 65.0141 34.1604C65.86 33.2442 66.7059 32.328 67.5517 31.3464C67.0312 33.0479 66.1203 34.3567 64.5586 35.0765C62.6066 36.0582 60.5895 37.0398 58.5724 37.7596C56.4252 38.5449 54.343 38.414 52.4561 36.9089C52.391 36.8434 52.2609 36.8435 52.1308 36.778C52.0657 36.8435 52.0006 36.9089 51.9356 36.9743C52.391 37.367 52.7814 37.7596 53.2369 38.1523C52.0006 38.2832 50.7643 38.414 49.5281 38.5449V38.6104C51.0246 38.6104 52.5212 38.6104 54.0177 38.6104C52.7164 38.7412 51.415 38.6758 50.1787 38.9376C48.8123 39.1993 47.8363 38.7412 46.9254 37.8905C46.4048 37.4324 45.9493 36.9089 45.4288 36.3854C45.2987 36.2545 45.1035 36.0582 44.9733 35.9273C44.9083 35.9927 44.8432 36.0582 44.7781 36.1236C45.3637 36.9089 45.8843 37.6287 46.4699 38.414C46.4699 38.4795 46.4048 38.5449 46.4048 38.6104C46.0795 38.5449 45.6891 38.4795 45.4288 38.3486C44.9083 38.0214 44.3877 37.6287 43.6069 37.8905C44.3227 38.2832 44.8432 38.8721 45.2336 39.592C45.8192 40.639 45.8843 40.639 45.2336 41.6861C45.1685 41.817 45.0384 41.9479 44.9733 42.1442C44.9083 42.2751 44.9733 42.4714 44.9733 42.6023C43.8672 42.9295 42.9562 42.2096 41.8501 41.9479C42.4357 42.8641 43.4117 43.1258 44.4528 43.453C44.3227 44.1729 44.2576 44.8273 44.1275 45.4817C43.3466 45.8089 42.5658 45.678 41.785 45.4163C41.1994 45.2199 41.0693 44.9582 41.3296 44.4346C41.5248 44.042 41.6549 43.5839 41.8501 43.1913C41.1994 44.1729 40.5487 45.1545 40.9392 46.5288C41.0693 46.2016 41.1344 45.9398 41.1344 45.8744C41.9802 46.1361 42.8261 46.3979 43.672 46.6596C43.9323 48.4266 43.672 50.1935 42.9562 51.306C42.6309 51.8295 42.1754 52.2222 41.4597 52.2222C41.4597 51.7641 41.5248 51.3714 41.5248 50.9788C41.4597 50.2589 41.5898 49.4736 41.2645 48.9501C40.6789 47.9685 40.6138 46.856 40.3535 45.8089C40.1583 45.0891 40.2234 44.5001 40.4837 43.8457C41.1994 41.6861 42.1754 39.6574 42.3056 37.4324C42.696 37.4324 42.9562 37.367 43.2816 37.367C43.2816 37.3015 43.3466 37.2361 43.3466 37.1707C42.8912 36.778 42.4357 36.3854 42.0453 35.9927C41.72 35.6655 41.2645 35.2729 41.1994 34.8802C41.0042 33.7677 40.9392 32.5898 40.809 31.4118C40.8741 31.5427 41.0042 31.739 41.1994 32.0008C41.1344 31.6736 41.1344 31.4773 41.0693 31.2809L41.1344 31.2155C41.1994 31.3464 41.2645 31.4118 41.2645 31.4773C41.3946 31.2809 41.5248 31.1501 41.6549 31.0192C41.8501 31.3464 41.8501 31.0846 41.9152 30.9537C42.3056 30.4956 43.4768 30.5611 43.9973 30.8883C44.648 31.3464 45.2987 31.6736 46.0144 31.9354C46.2747 32.0662 46.6651 32.0008 47.0555 32.0008C47.0555 31.9354 47.0555 31.9354 47.0555 31.8699C46.535 31.6081 45.9493 31.3464 45.4288 31.0846C45.4288 31.0192 45.4939 31.0192 45.4939 30.9537C46.3398 31.2155 47.1206 31.4773 47.9664 31.739C47.576 32.8515 49.3979 35.7964 51.0246 36.5162C49.7233 35.2074 48.8123 33.7677 48.487 31.9354C49.3329 32.4589 50.1137 32.9824 50.9595 33.3751C51.8054 33.7677 52.7164 34.0949 53.5622 34.2912C54.7334 34.6184 55.6444 34.553 56.0348 34.2258C54.8636 33.964 53.6273 33.7677 52.4561 33.5059C52.4561 33.4405 52.4561 33.3751 52.5212 33.2442C52.7164 33.3096 52.9766 33.3096 53.1718 33.3751V33.3096C52.7814 33.1133 52.391 32.8515 52.0006 32.6552C55.8396 32.7206 59.2882 31.8045 62.3463 29.6449C65.0141 27.8126 67.4216 25.653 69.3736 23.0353C70.8051 21.203 72.2366 19.3706 74.4489 18.3236C75.1646 17.9964 75.8804 17.6691 76.531 17.2111C76.7913 17.0802 76.9865 16.6875 77.1817 16.4258C76.8564 16.3603 76.531 16.2949 76.2057 16.2294C76.0756 16.2294 75.8804 16.2949 75.6852 16.2949C73.1475 17.0802 70.6099 18.0618 68.2675 19.3706C67.0312 20.025 65.9901 20.9412 65.2744 22.1192C64.949 22.6427 64.8189 23.2317 64.5586 23.8206C64.6237 23.8861 64.7538 23.9515 64.8189 24.017C65.9901 22.1192 67.7469 20.9412 69.699 20.1559C69.1134 21.1375 68.5277 21.9883 67.812 22.839C66.3155 24.6714 64.884 26.5037 62.6717 27.5508C61.3703 28.1398 60.069 28.7287 58.7026 29.1214C56.0348 29.9721 53.2369 29.9067 50.439 29.6449C49.3329 29.514 48.2267 29.3831 47.1206 29.3177C44.9083 29.1214 42.696 29.1214 40.6789 30.3648C38.9221 31.4118 37.1002 32.4589 35.2132 33.4405C32.2852 34.9457 29.1619 35.8618 25.7784 35.6655C25.323 35.6655 24.8675 35.5346 24.4771 35.4692C24.4771 35.4037 24.4771 35.3383 24.4771 35.2729C24.7374 35.2074 24.9976 35.2074 25.388 35.142C22.8504 34.553 22.8504 34.553 22.2648 33.7023C22.9805 33.7023 23.6963 33.7677 24.412 33.7023C25.6483 33.6368 26.7545 33.3096 27.6654 32.3934C28.4462 31.6081 28.5113 30.7574 27.7955 29.9067C30.6585 28.4015 33.9119 27.6817 36.4495 25.5221C36.3194 25.8493 36.1242 26.1765 35.994 26.4383C36.0591 26.5037 36.1242 26.5692 36.1892 26.6346C36.4495 26.4383 36.7098 26.3074 36.8399 26.0456C37.1002 25.5875 37.2954 25.1295 37.4906 24.6059C37.881 23.5589 38.3365 23.0353 39.3125 22.4464C39.1173 22.9699 38.9221 23.4934 38.7269 24.0824C39.7679 23.1008 40.4186 21.9228 40.9392 20.6794C41.9152 18.4544 43.2165 16.6221 45.5589 15.7059C45.7541 15.6405 45.8843 15.3787 46.0144 15.1824C45.7541 15.1824 45.5589 15.0515 45.3637 15.1169C43.3466 15.7059 42.0453 17.1456 40.8741 18.8471C40.6789 19.1743 40.4837 19.3052 40.0933 19.1089C39.5077 18.7817 38.857 18.5853 38.2063 18.3236C38.2063 18.389 38.1413 18.389 38.1413 18.4544C38.857 18.9125 39.5727 19.3706 40.2885 19.7633C39.9631 21.0721 39.0522 19.8942 38.4015 20.1559C38.7919 20.4177 39.1173 20.614 39.4426 20.8758C39.2474 21.0721 39.1173 21.203 38.9871 21.3339C38.1413 22.3155 37.9461 22.3155 36.7748 21.792C36.4495 21.6611 36.1892 21.4647 35.8639 21.3339C35.4735 21.1375 35.0831 20.8758 34.6276 20.6794C34.6276 20.7449 34.5625 20.7449 34.5625 20.8103C34.8228 21.0067 35.018 21.203 35.2783 21.3993C35.2132 21.4647 35.2132 21.5302 35.1482 21.5956C34.5625 21.203 34.042 20.8103 33.3913 20.3522C34.2372 21.792 35.6036 22.5118 37.0351 23.1008C36.97 23.1662 36.97 23.2317 36.905 23.2317C36.6447 23.1662 36.3844 23.0353 35.994 22.9045C36.2543 23.2317 36.4495 23.3625 36.6447 23.6243C35.8639 24.2133 35.0831 24.7368 34.3673 25.3258C33.8468 25.7184 33.5865 25.5875 33.3913 25.1295C33.6516 24.8677 33.9119 24.6059 34.1721 24.2787C34.1071 24.2133 34.042 24.1478 33.9769 24.0824C33.6516 24.3442 33.3913 24.5405 33.066 24.8022C32.9359 24.7368 32.8708 24.6714 32.8057 24.6059C31.5694 23.5589 30.3332 22.5118 28.7065 22.1192C27.9907 21.9228 27.4051 21.3993 26.7545 21.0721C26.6894 21.0721 26.6894 21.0721 26.6243 21.0721C26.6243 21.203 26.6894 21.3339 26.6894 21.4647C26.6243 21.5302 26.6243 21.5302 26.5592 21.5956C25.9736 21.0721 25.4531 20.5486 24.8675 20.025L24.8024 20.0905C25.0627 20.4831 25.323 20.8103 25.6483 21.203C24.6723 21.0067 23.6963 20.7449 22.7203 20.7449C21.484 20.6794 20.6381 20.1559 19.8573 19.2397C19.597 18.8471 19.2717 18.5199 19.0114 18.1927L18.9464 18.2581C19.0114 18.4544 19.0765 18.6508 19.2066 19.0434C18.1005 18.7162 18.2306 17.6037 17.645 17.0802C17.8402 17.6691 18.1005 18.3236 18.3608 19.0434C16.8642 19.1089 15.4327 19.2397 14.0012 19.3052C14.2615 19.4361 14.4567 19.5015 14.717 19.5015C15.8882 19.5015 16.9943 19.4361 18.1656 19.3706C18.556 19.3706 18.8813 19.3706 19.0114 19.9596C17.9703 20.0905 16.9943 20.4177 15.9533 20.3522C15.0423 20.3522 14.1314 20.025 13.2204 19.8287C12.2444 19.6978 11.3985 19.4361 11.0732 18.3236C11.1383 18.7162 11.2684 19.1089 11.3335 19.5669C11.2033 19.6324 11.0081 19.6978 10.878 19.7633C10.7479 19.5669 10.6828 19.3706 10.6177 19.1743C10.6177 19.2397 10.5527 19.2397 10.5527 19.2397C10.5527 19.4361 10.6177 19.6324 10.6177 19.8942C8.53557 20.3522 6.58355 21.0721 4.50139 20.1559C5.21713 20.2214 5.99794 20.2214 6.71368 20.2868C6.71368 20.2214 6.71368 20.1559 6.71368 20.0905C6.06301 20.025 5.4774 20.025 4.82673 19.8942C4.17605 19.7633 3.59044 19.5669 3.00484 19.3706C2.4843 19.1743 1.96376 18.8471 1.24802 18.4544C2.09389 18.389 2.6795 18.389 3.26511 18.2581C4.43632 18.0618 5.60753 17.5383 6.06301 16.4258C6.38834 15.6405 6.84382 15.5096 7.49449 15.3133C13.9362 13.4155 20.4429 12.9574 27.0798 13.6772C28.9667 13.8736 30.9188 14.0044 32.8057 13.7427C35.6687 13.35 38.2714 12.1721 40.8741 10.9941C42.6309 10.1434 44.4528 9.48899 46.2096 8.76913C46.4699 8.63825 46.7952 8.70369 47.1206 8.63825C47.1206 8.70369 47.1206 8.76913 47.1856 8.90002C46.6651 9.0309 46.1446 9.16178 45.624 9.35811V9.42355C46.6 9.29266 47.576 9.16178 48.6171 9.09634C48.2918 9.68531 48.0315 10.2743 47.7712 10.8633C47.8363 10.9287 47.9014 10.9287 48.0315 10.9941C48.1616 10.7978 48.3568 10.6669 48.487 10.4706C49.3979 8.96546 50.8945 8.37649 52.5862 8.11472C55.9047 7.59119 59.158 7.1331 62.4765 6.54413C64.2333 6.21692 65.86 5.62795 67.6168 5.2353C68.788 4.97354 70.0243 4.84266 71.2606 4.71177C71.2606 4.77722 71.2606 4.77722 71.2606 4.84266C69.699 5.16986 68.1373 5.49707 66.5757 5.75883C66.7709 5.88972 66.9661 5.88972 67.1613 5.82428C69.699 5.43163 72.2366 4.97354 74.7742 4.58089C79.0687 3.99192 83.233 2.87942 87.3322 1.43971C88.2432 1.1125 89.024 0.588972 89.8699 0.130883C89.8699 0.0654413 89.8048 0 89.8048 0C89.6096 0.0654413 89.4795 0.0654413 89.2843 0.130883C85.2501 1.50515 81.1508 2.42133 76.9865 3.0103C72.7571 3.66471 68.5928 4.31913 64.4285 4.97354C61.2402 5.36619 58.182 5.95516 55.0588 6.41325C53.4321 6.67501 51.8054 6.67501 50.1137 6.87134C46.9254 7.26398 43.9973 8.31104 41.1344 9.88164C39.5727 10.7324 37.8159 11.5177 36.0591 11.9103C34.3023 12.303 32.4153 12.303 30.5934 12.3684C25.5832 12.6302 20.573 12.7611 15.5629 13.0228C14.2615 13.0883 13.0252 13.2846 11.7239 13.5463C8.0801 14.3316 4.50139 15.3133 0.857611 16.0986C0.141869 16.2294 -0.0533332 16.5566 0.0117343 17.2111C0.141869 18.7162 1.11788 19.5669 2.28909 20.2214C4.63152 21.3993 7.10409 21.3339 9.64172 21.0721C10.9431 20.9412 12.2444 20.4177 13.6108 20.7449C14.4567 20.9412 15.3677 21.1375 16.2135 21.1375C19.532 21.2684 22.7853 21.6611 26.0387 22.3809C27.8606 22.7736 29.1619 23.6897 30.203 25.1295C30.3332 25.2603 30.3332 25.5875 30.2681 25.7839C29.6174 27.4199 28.5763 28.5978 26.8846 29.3177C24.9326 30.103 23.1107 31.0192 21.2237 31.8699C20.6381 32.1317 20.508 32.5898 20.7032 33.1133C20.8984 33.5714 21.1587 33.964 21.484 34.2912C22.0696 34.8802 22.7203 35.4692 23.436 35.9927C24.5422 36.8435 24.5422 36.8434 24.1518 38.2177C24.1518 38.2832 24.0867 38.414 24.0867 38.4795C23.1757 41.0971 23.1107 43.7802 23.3059 46.5288C23.5011 49.081 23.6963 51.6332 23.8264 54.12C23.8264 54.6435 24.0867 54.8398 24.4771 54.9707C25.1928 55.1016 25.8435 54.7744 26.364 54.3817C26.6243 54.1854 26.8846 53.8582 27.2099 53.7928C29.6174 52.8766 31.179 51.1097 32.3503 48.9501C33.3263 47.1177 34.1071 45.1545 35.1482 43.3221C35.7338 42.2751 36.4495 41.1626 37.3604 40.4427C38.6618 39.3957 40.4186 38.8721 41.4597 37.367C41.5248 37.6287 41.5248 37.8905 41.4597 38.1523C41.1994 39.1993 40.9392 40.3118 40.6789 41.3589C40.2234 43.1258 39.6378 44.8927 40.0282 46.7905C40.3535 48.6229 40.809 50.4552 40.5488 52.353C40.5488 52.5494 40.809 52.8111 41.0042 52.8766C41.785 53.2038 42.696 53.0075 43.3466 52.1567C44.5829 50.5861 44.9733 48.7538 44.5179 46.7905C44.4528 46.5942 44.5179 46.3979 44.5829 46.2016C44.9083 45.2854 45.2336 44.3692 45.5589 43.453C45.624 43.3221 45.6891 43.1913 45.8192 43.1258C46.0795 42.7986 46.2747 42.4714 46.535 42.1442C46.9254 41.6207 47.1206 40.9008 47.6411 40.639C48.4219 40.181 49.3979 39.9192 50.2438 39.7883C52.2609 39.592 54.278 39.592 56.2951 39.4611C59.8087 39.3302 62.997 38.2832 65.5346 35.7964C67.2915 34.1604 68.9182 32.328 70.6099 30.6265C72.0414 29.1868 73.7331 28.2706 75.6852 28.0089C77.2468 27.8126 78.8735 27.8126 80.4351 28.0089C83.6885 28.467 86.8768 28.467 90 28.0089C89.4795 27.8126 88.8939 27.5508 88.2432 27.4199C84.5343 26.3728 80.5652 25.653 76.4009 25.9802ZM67.5517 24.3442C67.6168 24.4096 67.6168 24.475 67.6819 24.475C67.3565 24.8022 67.0312 25.1949 66.7059 25.5221C64.1682 28.0743 61.3703 30.2339 57.7266 31.0192C55.3841 31.5427 53.1068 31.4773 50.7643 31.0192C50.3739 30.9537 50.0486 30.5611 49.6582 30.2993C56.6204 31.2155 62.6066 29.3177 67.5517 24.3442ZM33.3263 13.2846C30.9188 14.0044 28.5763 13.4809 25.9736 13.2846C28.5763 13.2846 30.9188 13.2846 33.3263 13.2846ZM0.857611 17.6692C0.727476 17.6692 0.597341 17.4728 0.402139 17.3419C0.532274 17.2765 0.727476 17.1456 0.857611 17.1456C1.70349 17.0802 2.54936 17.0802 3.39524 17.0147C3.39524 16.9493 3.39524 16.8839 3.39524 16.8184C2.4843 16.8839 1.57335 16.8839 0.662409 16.9493C0.662409 16.8184 0.662409 16.6875 0.597341 16.6221C1.83362 16.4258 3.0699 16.2949 4.24112 16.0986C4.24112 16.164 4.30619 16.164 4.30619 16.2294C4.04592 16.4258 3.78565 16.5566 3.52538 16.753C3.59044 16.8184 3.59044 16.8839 3.65551 16.9493C4.04592 16.6875 4.37125 16.4258 4.76166 16.164C5.02193 16.0331 5.34726 15.9022 5.60753 15.7714C5.4774 16.0331 5.41233 16.3603 5.21713 16.5566C4.43632 17.4074 3.39524 17.6037 2.28909 17.6692C1.83362 17.7346 1.31308 17.7346 0.857611 17.6692ZM27.7305 30.4302C28.1209 31.2809 27.4702 32.2626 26.5592 32.6552C26.8195 32.2626 27.1449 31.8699 27.3401 31.4118C27.5353 30.9537 27.6654 30.4302 27.1449 30.0376C27.3401 30.1684 27.6654 30.2339 27.7305 30.4302ZM21.5491 32.3934C23.5011 31.5427 25.323 30.8228 27.1449 30.0376C27.4702 31.3464 27.0147 32.1317 25.7784 32.5898C24.6723 32.9824 23.5661 33.0479 22.3949 32.7861C22.1347 32.6552 21.9395 32.5243 21.5491 32.3934ZM25.5832 38.1523C25.1278 39.9846 24.6072 41.817 24.1518 43.6493C24.347 41.7516 24.5422 39.8537 25.5832 38.1523ZM25.9736 53.6619C25.5832 54.1854 24.9326 54.3163 24.2819 54.12C24.8675 51.5677 24.347 49.081 24.412 46.5288C24.412 43.3221 25.1278 40.3118 26.2339 37.367C26.299 37.1707 26.5592 37.0398 26.7545 36.9743C27.7955 36.8435 28.9017 36.8435 30.0078 36.778C29.8777 37.4324 29.8126 38.1523 29.6825 38.8067C29.4222 40.181 29.0969 41.4898 28.9017 42.8641C28.7715 43.5839 28.4462 43.9111 27.7955 44.1729C27.7305 43.8457 27.7305 43.5839 27.6654 43.3221C27.7305 44.2383 27.275 44.631 26.364 44.6964C26.5593 44.6964 26.6894 44.7618 26.8846 44.7618C27.0798 44.7618 27.2099 44.7618 27.4051 44.7618C27.4702 45.2199 27.6003 45.6126 27.6654 46.0707C27.7305 46.0707 27.7955 46.0707 27.8606 46.0052C27.8606 45.7435 27.8606 45.4163 27.8606 45.0891C28.1859 44.9582 28.4462 44.8273 28.9017 44.631C28.9667 45.678 29.0969 46.7905 29.1619 47.8376C29.0969 47.8376 28.9667 47.8376 28.9017 47.8376C28.9017 47.3795 28.9017 46.9869 28.9017 46.5288C28.9017 46.1361 28.8366 45.678 28.6414 45.2854C28.6414 46.1361 28.7065 46.9869 28.6414 47.8376C28.3811 50.0626 27.275 51.895 25.9736 53.6619ZM40.3535 36.4508C39.5727 37.6287 38.4015 38.5449 37.2303 39.3302C37.1002 39.4611 36.905 39.5265 36.7748 39.7229C36.1242 40.3773 35.994 40.4427 35.3434 39.7883C34.8228 39.2648 34.4324 38.6758 34.042 38.1523C33.9769 38.1523 33.9119 38.2177 33.8468 38.2177C34.1071 38.8067 34.4324 39.3957 34.6927 39.9846C34.8228 40.2464 34.8879 40.5736 34.8228 40.8354C34.6276 41.7515 34.1721 42.6023 33.3913 43.1913C33.1311 43.3876 32.8708 43.5185 32.6105 43.7148C32.6756 43.8457 32.8057 43.9111 32.8708 44.042C33.6516 43.8457 33.9769 43.1258 34.4975 42.6677C34.2372 43.3221 33.9769 44.042 33.7167 44.7618C33.4564 44.631 33.1961 44.5001 32.9359 44.3038C32.4804 46.5942 31.9598 48.8192 30.3982 50.6516C29.8777 51.2405 29.1619 51.5677 28.4462 51.9604C29.0318 50.5207 29.4873 49.2119 29.4873 47.6413C29.4873 45.8089 29.6825 43.9766 29.8777 42.1442C30.0729 40.5082 30.7886 39.003 31.8948 37.8251C32.6756 36.9743 33.1961 35.9927 33.9769 35.2074C34.1071 35.0111 34.3673 34.9457 34.5625 34.8148C35.6036 34.3567 36.7098 33.964 37.6858 33.4405C38.1413 33.1787 38.5317 32.7206 39.0522 32.2626C39.4426 33.1787 39.7029 33.8986 40.0282 34.7493C38.7269 36.189 37.3604 37.6287 36.0591 39.1339C36.3194 39.003 36.6447 38.8721 36.8399 38.6758C37.7509 37.8251 38.6618 36.8435 39.5727 35.9927C39.833 35.7309 40.0933 35.2074 40.4837 35.5346C40.7439 35.5346 40.5488 36.1236 40.3535 36.4508ZM74.8393 27.0927C74.8393 27.0273 74.8393 27.0273 74.8393 26.9618C76.531 26.9618 78.2228 26.9618 79.9146 26.9618C79.9146 27.0273 79.9146 27.0273 79.9146 27.0927C78.2228 27.0927 76.531 27.0927 74.8393 27.0927Z" fill="url(#paint0_linear)"/>
<defs>
<linearGradient id="paint0_linear" x1="5.04863" y1="5.10264" x2="85.4838" y2="39.1705" gradientUnits="userSpaceOnUse">
<stop stop-color="#BF7F33"/>
<stop offset="0.060606" stop-color="#AC6E32"/>
<stop offset="0.1394" stop-color="#BC8846"/>
<stop offset="0.2788" stop-color="#C88A32"/>
<stop offset="0.4424" stop-color="#FBDA73"/>
<stop offset="0.5636" stop-color="#F5D36A"/>
<stop offset="0.6182" stop-color="#FBDA73"/>
<stop offset="0.7636" stop-color="#DA9A2F"/>
<stop offset="0.8788" stop-color="#DBAF59"/>
<stop offset="1" stop-color="#9D5F34"/>
</linearGradient>
</defs>
</svg>
